<?xml version="1.0" encoding="UTF-8"?>
<svg fill="#fff" version="1.1" viewBox="0 0 564.68 87.417" xmlns="http://www.w3.org/2000/svg" xmlns:xlink="http://www.w3.org/1999/xlink">
<defs>
<clipPath id="f">
<path transform="translate(-152.43 -227.97)" d="M 0,393.351 H 540.959 V 0 H 0 Z"/>
</clipPath>
<clipPath id="c">
<path transform="translate(-204.34 -185.95)" d="M 0,393.351 H 540.959 V 0 H 0 Z"/>
</clipPath>
<clipPath id="b">
<path transform="translate(-259.67 -185.95)" d="M 0,393.351 H 540.959 V 0 H 0 Z"/>
</clipPath>
<clipPath id="a">
<path transform="translate(-310.68 -185.92)" d="M 0,393.351 H 540.959 V 0 H 0 Z"/>
</clipPath>
<clipPath id="k">
<path transform="translate(-345.98 -185.92)" d="M 0,393.351 H 540.959 V 0 H 0 Z"/>
</clipPath>
<clipPath id="j">
<path transform="translate(-410 -208.74)" d="M 0,393.351 H 540.959 V 0 H 0 Z"/>
</clipPath>
<clipPath id="i">
<path d="M 0,393.351 H 540.959 V 0 H 0 Z"/>
</clipPath>
<clipPath id="h">
<path transform="translate(-467.04 -208.74)" d="M 0,393.351 H 540.959 V 0 H 0 Z"/>
</clipPath>
<clipPath id="g">
<path transform="translate(-202.85 -219.76)" d="M 0,393.351 H 540.959 V 0 H 0 Z"/>
</clipPath>
<clipPath id="e">
<path transform="translate(-470.48 -222.98)" d="M 0,393.351 H 540.959 V 0 H 0 Z"/>
</clipPath>
<clipPath id="d">
<path transform="translate(-477.46 -222.98)" d="M 0,393.351 H 540.959 V 0 H 0 Z"/>
</clipPath>
</defs>
<g transform="translate(-61.819 -207.19)">
<path transform="matrix(1.3333 0 0 -1.3333 191.9 209.17)" d="m0 0c0-0.26-0.063-0.499-0.183-0.717-0.021-0.042-18.371-33.143-18.371-33.143-0.253-0.464-0.746-0.781-1.315-0.781-0.513 0-0.97 0.26-1.237 0.654-0.029 0.042-16.08 29.002-16.115 29.058-0.183 0.261-0.485 0.436-0.83 0.436h-3.656c-0.548 0-0.991-0.443-0.991-0.991 0-0.141 0.028-0.274 0.077-0.394l18.47-33.34c0.38-0.703 0.598-1.511 0.598-2.376 0-0.837-0.204-1.631-0.577-2.327-0.014-0.036-5.758-10.392-5.758-10.392l-4.057-7.326c-0.126-0.218-0.274-0.422-0.429-0.612-0.562-0.682-1.307-1.216-2.151-1.511-0.527-0.204-1.104-0.31-1.701-0.31h-21.107c-1.814 0-3.41 0.978-4.282 2.433l-33.762 60.922c-0.119 0.218-0.182 0.457-0.182 0.717 0 0.823 0.668 1.491 1.49 1.491h19.504c0.562 0 1.054-0.317 1.307-0.781l26.478-47.76 3.79-6.827c0.176-0.26 0.478-0.436 0.823-0.436h1.813c0.19 0 0.366 0.049 0.514 0.141 0.126 0.077 0.232 0.175 0.316 0.295 0.035 0.056 1.034 1.87 1.034 1.87 0.049 0.127 0.077 0.253 0.077 0.394s-0.028 0.267-0.077 0.387c0 0-26.211 47.303-26.232 47.345-0.12 0.211-0.183 0.457-0.183 0.71s0.063 0.499 0.183 0.71c0.021 0.042 1.771 3.213 1.821 3.291 0.267 0.4 0.724 0.661 1.244 0.661h62.166c0.823 0 1.491-0.668 1.491-1.491" clip-path="url(#f)"/>
<path transform="matrix(1.3333 0 0 -1.3333 261.12 265.2)" d="m0 0c0.148 2.702 0.343 5.453 0.54 8.205h23.387c2.357 0 3.144 0.688 3.144 2.752 0 2.013-0.737 2.701-3.096 2.701h-14.051c-8.155 0-10.759 2.899-10.759 9.286v1.131c0 6.926 2.849 9.728 11.201 9.728h23.976l-1.031-8.255h-22.945c-2.161 0-2.899-0.835-2.899-2.702 0-1.965 0.738-2.8 2.899-2.8h13.609c8.548 0 11.497-2.899 11.497-8.746v-1.326c0-7.272-2.997-9.974-10.907-9.974z" clip-path="url(#c)"/>
<path transform="matrix(1.3333 0 0 -1.3333 334.89 265.2)" d="m0 0c0.148 2.702 0.343 5.453 0.54 8.205h23.387c2.359 0 3.144 0.688 3.144 2.752 0 2.013-0.737 2.701-3.096 2.701h-14.051c-8.155 0-10.759 2.899-10.759 9.286v1.131c0 6.926 2.849 9.728 11.201 9.728h23.977l-1.033-8.255h-22.944c-2.161 0-2.899-0.835-2.899-2.702 0-1.965 0.738-2.8 2.899-2.8h13.609c8.55 0 11.497-2.899 11.497-8.746v-1.326c0-7.272-2.997-9.974-10.907-9.974z" clip-path="url(#b)"/>
<path transform="matrix(1.3333 0 0 -1.3333 402.91 265.23)" d="m0 0v25.548h-11.84v8.255h31.837v-8.255h-11.792v-25.548z" clip-path="url(#a)"/>
<path transform="matrix(1.3333 0 0 -1.3333 449.97 265.23)" d="m0 0c-7.665 0-10.366 3.046-10.366 10.71v23.093h8.156v-23.093c0-1.768 0.639-2.505 2.21-2.505h16.755c1.621 0 2.259 0.737 2.259 2.505v23.093h8.157v-23.093c0-7.664-2.752-10.71-10.416-10.71z" clip-path="url(#k)"/>
<path transform="matrix(1.3333 0 0 -1.3333 535.33 234.8)" d="m0 0c0 2.113-0.786 2.752-2.652 2.752h-20.685v-17.344h20.685c1.916 0 2.652 0.639 2.652 2.702zm-31.542-22.797v33.803h28.938c8.303 0 10.761-2.702 10.761-10.956v-11.89c0-8.304-2.458-10.957-10.761-10.957z" clip-path="url(#j)"/>
<path transform="matrix(1.3333 0 0 -1.3333 -11.339 513.13)" d="m422.82 219.75h8.205v-33.803h-8.205z" clip-path="url(#i)"/>
<path transform="matrix(1.3333 0 0 -1.3333 611.38 234.8)" d="m0 0c0 2.113-0.738 2.752-2.654 2.752h-18.079c-1.868 0-2.604-0.639-2.604-2.752v-11.89c0-2.063 0.688-2.702 2.604-2.702h18.079c1.966 0 2.654 0.639 2.654 2.702zm-20.733-22.797c-8.352 0-10.761 2.653-10.761 10.957v11.89c0 8.352 2.409 10.956 10.761 10.956h18.129c8.107 0 10.759-2.604 10.759-10.956v-11.89c0-8.304-2.652-10.957-10.759-10.957z" clip-path="url(#h)"/>
<path transform="matrix(1.3333 0 0 -1.3333 259.13 220.12)" d="m0 0-17.822-32.165-0.917-1.646h-7.23l-0.917 1.663-17.822 32.148h9.777l12.577-23.644 12.577 23.644z" clip-path="url(#g)"/>
<path transform="matrix(1.3333 0 0 -1.3333 615.97 215.82)" d="m0 0v3.276h-1.46v1.058h3.925v-1.058h-1.454v-3.276z" clip-path="url(#e)"/>
<path transform="matrix(1.3333 0 0 -1.3333 625.27 215.82)" d="m0 0v2.47l-1.096-2.47h-0.939l-1.097 2.47v-2.47h-0.926v4.334h1.102l1.399-3.263 1.406 3.263h1.072v-4.334z" clip-path="url(#d)"/>
<path transform="matrix(1.3333 0 0 1.3333 281.6 289.99)" d="m0.44414-4.3139v0.63281c0 1.8516 0.31641 2.625 1.2891 3.1758 0.9375 0.52734 2.5312 0.70312 6.4336 0.70312 4.0547 0 5.6133-0.10547 6.4102-0.45703 1.2656-0.50391 1.7695-1.6172 1.7695-3.8203 0-1.8516-0.35156-2.7422-1.3008-3.3047-0.82031-0.49219-1.6992-0.60938-5.8828-0.72656-2.8477-0.070312-3.8672-0.12891-4.2188-0.23438-0.36328-0.11719-0.53906-0.36328-0.53906-0.83203 0-0.96094 0.26953-1.0312 3.5977-1.0312 2.9883 0 3.4336 0.03516 3.75 0.29297 0.21094 0.1875 0.26953 0.36328 0.29297 1.0078h3.8203c0.01172-0.25781 0.01172-0.52734 0.01172-0.60938 0-1.5938-0.35156-2.4258-1.1836-2.9531-0.9375-0.55078-2.2969-0.72656-5.9297-0.72656-4.6875 0-5.8242 0.11719-6.832 0.66797-0.92578 0.50391-1.3711 1.6758-1.3711 3.5977 0 1.3125 0.23438 2.1445 0.72656 2.7305 0.58594 0.66797 1.5 0.9375 3.3867 0.99609 0.43359 0 1.7109 0.058594 3.1641 0.14062 1.3828 0.058594 2.6602 0.11719 3.1172 0.11719 1.2656 0.011719 1.5586 0.21094 1.5586 0.98438 0 1.1367 0 1.1367-4.2539 1.1602-3.1172-0.023438-3.1523-0.023438-3.5859-0.28125-0.30469-0.1875-0.38672-0.50391-0.38672-1.2305zm17.777-8.6836v12.996h4.0312l-0.09375-9.7031h0.43359l6.832 9.7031h6.8789v-12.996h-4.0312l0.09375 9.6797h-0.39844l-6.8086-9.6797zm20.385 0v12.996h3.9609v-4.9687h2.1562l5.8359 4.9687h6l-8.1445-6.6211 7.5234-6.457h-6.0703l-5.1445 4.793h-2.1562v-4.7109zm36.662 7.9922c-0.02344 1.9219-0.08203 1.9453-4.4297 1.9453-4.1719 0-4.2305-0.035156-4.2305-3.375 0-1.9688 0.16406-2.7305 0.63281-3.1172 0.38672-0.30469 1.1016-0.38672 3.5859-0.38672 2.6836 0 3.7734 0.11719 4.0078 0.44531 0.16406 0.21094 0.19922 0.38672 0.23438 1.1484h3.9609v-0.64453c0-2.1445-0.43359-3.0937-1.6172-3.6562-0.90234-0.43359-2.1094-0.55078-5.4609-0.55078-6.7031 0-8.1445 0.32812-8.8828 1.9688-0.31641 0.73828-0.41016 1.793-0.41016 4.8164 0 1.5352 0.02344 2.6133 0.08203 3.1992 0.15234 1.4531 0.57422 2.2148 1.5352 2.707 1.0664 0.53906 2.707 0.70312 7.6523 0.70312 2.9883 0 4.4297-0.14062 5.4844-0.49219 1.3477-0.49219 1.8633-1.4414 1.8633-3.4922 0-0.1875-0.01172-0.48047-0.03516-1.2188zm14.584-8.1914c-5.4258 0-6.6562 0.14062-7.6406 0.90234-0.99609 0.76172-1.2891 2.0859-1.2891 5.707 0 3.8203 0.26953 5.1094 1.2891 5.8828 0.98438 0.76172 2.2031 0.90234 7.6758 0.90234 5.3789 0 6.6094-0.14062 7.5938-0.90234 0.99609-0.76172 1.2891-2.0625 1.2891-5.8008 0-3.7266-0.29297-5.0273-1.2891-5.7891-0.98438-0.76172-2.1914-0.90234-7.6289-0.90234zm0 3.375c3.6562 0 4.1016 0.058594 4.5117 0.62109 0.35156 0.44531 0.45703 1.1953 0.45703 3.0586 0 1.582-0.14062 2.1445-0.58594 2.4961-0.51562 0.38672-1.1719 0.46875-4.3477 0.46875-3.2812 0-3.9023-0.058594-4.4297-0.46875-0.44531-0.375-0.58594-0.89062-0.58594-2.5195 0-2.625 0.22266-3.2344 1.1953-3.4805 0.53906-0.15234 1.0898-0.17578 3.7852-0.17578zm10.966 9.8203h3.9609v-3.293h5.5898c2.4609-0.035156 2.5898 0.09375 2.5898 2.6133v0.67969h3.9023v-1.207c0.0703-3-0.26953-3.5859-2.2852-3.8203 0.82032-0.11719 1.1953-0.26953 1.582-0.58594 0.64454-0.55078 0.83204-1.2656 0.83204-3.1523 0-2.2617-0.28125-3.1172-1.2774-3.7266-0.84375-0.50391-0.84375-0.50391-5.3203-0.50391h-9.5742zm3.9609-6.5508v-3.1875h5.5664c1.8398 0.011719 1.875 0.011719 2.168 0.15234 0.38672 0.17578 0.52735 0.53906 0.52735 1.4062 0 0.85547-0.11719 1.2188-0.46875 1.4414-0.26953 0.15234-0.26953 0.15234-2.2266 0.1875zm14.145 6.5508h3.9609v-3.1758h4.9805c2.8945 0 3.7852-0.082031 4.6641-0.41016 1.5-0.58594 1.9922-1.7109 1.9922-4.5352 0-3.3984-0.72657-4.4297-3.293-4.7813-0.66797-0.08203-1.0547-0.09375-3.3984-0.09375h-8.9062zm3.9609-6.4336v-3.3047h4.9453c1.7695 0.011719 1.8164 0.011719 2.0859 0.12891 0.49218 0.19922 0.64453 0.5625 0.64453 1.4883 0 0.92578-0.14063 1.2773-0.52735 1.5-0.32812 0.17578-0.41015 0.17578-2.2031 0.1875zm22.201-6.7617c-5.4258 0-6.6562 0.14062-7.6406 0.90234-0.99609 0.76172-1.2891 2.0859-1.2891 5.707 0 3.8203 0.26953 5.1094 1.2891 5.8828 0.98438 0.76172 2.2031 0.90234 7.6758 0.90234 5.3789 0 6.6094-0.14062 7.5938-0.90234 0.99609-0.76172 1.2891-2.0625 1.2891-5.8008 0-3.7266-0.29297-5.0273-1.2891-5.7891-0.98438-0.76172-2.1914-0.90234-7.6289-0.90234zm0 3.375c3.6562 0 4.1016 0.058594 4.5117 0.62109 0.35156 0.44531 0.45703 1.1953 0.45703 3.0586 0 1.582-0.14063 2.1445-0.58594 2.4961-0.51562 0.38672-1.1719 0.46875-4.3476 0.46875-3.2812 0-3.9024-0.058594-4.4297-0.46875-0.44531-0.375-0.58594-0.89062-0.58594-2.5195 0-2.625 0.22266-3.2344 1.1953-3.4805 0.53907-0.15234 1.0898-0.17578 3.7852-0.17578zm10.966 9.8203h3.9609v-3.293h5.5898c2.4609-0.035156 2.5898 0.09375 2.5898 2.6133v0.67969h3.9024v-1.207c0.0703-3-0.26953-3.5859-2.2852-3.8203 0.82031-0.11719 1.1953-0.26953 1.582-0.58594 0.64453-0.55078 0.83203-1.2656 0.83203-3.1523 0-2.2617-0.28125-3.1172-1.2773-3.7266-0.84375-0.50391-0.84375-0.50391-5.3203-0.50391h-9.5742zm3.9609-6.5508v-3.1875h5.5664c1.8398 0.011719 1.875 0.011719 2.168 0.15234 0.38672 0.17578 0.52735 0.53906 0.52735 1.4062 0 0.85547-0.11719 1.2188-0.46875 1.4414-0.26954 0.15234-0.26954 0.15234-2.2266 0.1875zm28.67 6.5508h4.5l-6.8086-12.996h-6.1523l-6.8789 12.996h4.5234l1.1016-2.2031h8.6016zm-2.4961-5.0508h-5.8125l2.5195-4.9219h0.77343zm5.4346-7.9453v3.3047h5.7891v9.6914h4.1484v-9.6914h5.7891v-3.3047zm17.306 0v12.996h4.1484v-12.996zm15.132-0.19922c-5.4258 0-6.6562 0.14062-7.6406 0.90234-0.99609 0.76172-1.2891 2.0859-1.2891 5.707 0 3.8203 0.26953 5.1094 1.2891 5.8828 0.98438 0.76172 2.2031 0.90234 7.6758 0.90234 5.3789 0 6.6094-0.14062 7.5938-0.90234 0.9961-0.76172 1.2891-2.0625 1.2891-5.8008 0-3.7266-0.29296-5.0273-1.2891-5.7891-0.98437-0.76172-2.1914-0.90234-7.6289-0.90234zm0 3.375c3.6562 0 4.1016 0.058594 4.5117 0.62109 0.35157 0.44531 0.45704 1.1953 0.45704 3.0586 0 1.582-0.14063 2.1445-0.58594 2.4961-0.51563 0.38672-1.1719 0.46875-4.3477 0.46875-3.2812 0-3.9023-0.058594-4.4297-0.46875-0.44531-0.375-0.58593-0.89062-0.58593-2.5195 0-2.625 0.22265-3.2344 1.1953-3.4805 0.53906-0.15234 1.0898-0.17578 3.7852-0.17578zm10.966-3.1758v12.996h4.0312l-0.0937-9.7031h0.43359l6.832 9.7031h6.8789v-12.996h-4.0313l0.0937 9.6797h-0.39844l-6.8086-9.6797z" aria-label="SNK CORPORATION"/>
</g>
</svg>
