<?xml version="1.0" encoding="UTF-8"?>
<svg fill="#fff" version="1.1" viewBox="0 0 550.11 72.847" xmlns="http://www.w3.org/2000/svg" xmlns:xlink="http://www.w3.org/1999/xlink">
<defs>
<clipPath id="f">
<path transform="translate(-148.5 -222.75)" d="M 0,393.351 H 540.959 V 0 H 0 Z"/>
</clipPath>
<clipPath id="c">
<path transform="translate(-205.75 -176.72)" d="M 0,393.351 H 540.959 V 0 H 0 Z"/>
</clipPath>
<clipPath id="b">
<path transform="translate(-261.08 -176.72)" d="M 0,393.351 H 540.959 V 0 H 0 Z"/>
</clipPath>
<clipPath id="a">
<path transform="translate(-312.09 -176.69)" d="M 0,393.351 H 540.959 V 0 H 0 Z"/>
</clipPath>
<clipPath id="k">
<path transform="translate(-347.39 -176.69)" d="M 0,393.351 H 540.959 V 0 H 0 Z"/>
</clipPath>
<clipPath id="j">
<path transform="translate(-411.41 -199.51)" d="M 0,393.351 H 540.959 V 0 H 0 Z"/>
</clipPath>
<clipPath id="i">
<path d="M 0,393.351 H 540.959 V 0 H 0 Z"/>
</clipPath>
<clipPath id="h">
<path transform="translate(-468.45 -199.51)" d="M 0,393.351 H 540.959 V 0 H 0 Z"/>
</clipPath>
<clipPath id="g">
<path transform="translate(-204.26 -210.53)" d="M 0,393.351 H 540.959 V 0 H 0 Z"/>
</clipPath>
<clipPath id="e">
<path transform="translate(-471.89 -213.75)" d="M 0,393.351 H 540.959 V 0 H 0 Z"/>
</clipPath>
<clipPath id="d">
<path transform="translate(-478.87 -213.75)" d="M 0,393.351 H 540.959 V 0 H 0 Z"/>
</clipPath>
</defs>
<g transform="translate(-78.267 -214.47)">
<path transform="matrix(1.3333 0 0 -1.3333 186.67 216.13)" d="m0 0c0-0.217-0.053-0.416-0.152-0.598-0.018-0.035-15.31-27.619-15.31-27.619-0.211-0.387-0.621-0.65-1.096-0.65-0.427 0-0.808 0.217-1.031 0.545-0.023 0.035-13.399 24.168-13.429 24.215-0.152 0.217-0.404 0.363-0.691 0.363h-3.047c-0.457 0-0.826-0.369-0.826-0.826 0-0.117 0.024-0.229 0.065-0.328l15.391-27.783c0.317-0.586 0.498-1.26 0.498-1.981 0-0.697-0.17-1.359-0.48-1.939-0.012-0.029-4.799-8.66-4.799-8.66l-3.38-6.105c-0.106-0.181-0.229-0.351-0.358-0.51-0.468-0.568-1.089-1.013-1.792-1.259-0.44-0.17-0.92-0.258-1.418-0.258h-17.589c-1.512 0-2.842 0.814-3.568 2.027l-28.135 50.768c-0.1 0.182-0.152 0.381-0.152 0.598 0 0.685 0.556 1.242 1.242 1.242h16.252c0.469 0 0.879-0.264 1.09-0.65l22.065-39.8 3.158-5.69c0.147-0.216 0.399-0.363 0.686-0.363h1.511c0.159 0 0.305 0.041 0.428 0.117 0.106 0.065 0.193 0.147 0.264 0.246 0.029 0.047 0.861 1.559 0.861 1.559 0.041 0.105 0.064 0.211 0.064 0.328s-0.023 0.223-0.064 0.322c0 0-21.842 39.42-21.86 39.455-0.099 0.176-0.152 0.381-0.152 0.592s0.053 0.416 0.152 0.591c0.018 0.035 1.477 2.678 1.518 2.742 0.222 0.334 0.603 0.551 1.037 0.551h51.805c0.685 0 1.242-0.557 1.242-1.242" clip-path="url(#f)"/>
<path transform="matrix(1.3333 0 0 -1.3333 263 277.51)" d="m0 0c0.148 2.702 0.343 5.453 0.54 8.205h23.387c2.357 0 3.144 0.688 3.144 2.752 0 2.013-0.737 2.701-3.096 2.701h-14.051c-8.155 0-10.759 2.899-10.759 9.286v1.131c0 6.926 2.849 9.728 11.201 9.728h23.976l-1.031-8.255h-22.945c-2.161 0-2.899-0.835-2.899-2.702 0-1.965 0.738-2.8 2.899-2.8h13.609c8.548 0 11.497-2.899 11.497-8.746v-1.326c0-7.272-2.997-9.974-10.907-9.974z" clip-path="url(#c)"/>
<path transform="matrix(1.3333 0 0 -1.3333 336.77 277.51)" d="m0 0c0.148 2.702 0.343 5.453 0.54 8.205h23.387c2.359 0 3.144 0.688 3.144 2.752 0 2.013-0.737 2.701-3.096 2.701h-14.051c-8.155 0-10.759 2.899-10.759 9.286v1.131c0 6.926 2.849 9.728 11.201 9.728h23.977l-1.033-8.255h-22.944c-2.161 0-2.899-0.835-2.899-2.702 0-1.965 0.738-2.8 2.899-2.8h13.609c8.55 0 11.497-2.899 11.497-8.746v-1.326c0-7.272-2.997-9.974-10.907-9.974z" clip-path="url(#b)"/>
<path transform="matrix(1.3333 0 0 -1.3333 404.78 277.54)" d="m0 0v25.548h-11.84v8.255h31.837v-8.255h-11.792v-25.548z" clip-path="url(#a)"/>
<path transform="matrix(1.3333 0 0 -1.3333 451.85 277.54)" d="m0 0c-7.665 0-10.366 3.046-10.366 10.71v23.093h8.156v-23.093c0-1.768 0.639-2.505 2.21-2.505h16.755c1.621 0 2.259 0.737 2.259 2.505v23.093h8.157v-23.093c0-7.664-2.752-10.71-10.416-10.71z" clip-path="url(#k)"/>
<path transform="matrix(1.3333 0 0 -1.3333 537.2 247.11)" d="m0 0c0 2.113-0.786 2.752-2.652 2.752h-20.685v-17.344h20.685c1.916 0 2.652 0.639 2.652 2.702zm-31.542-22.797v33.803h28.938c8.303 0 10.761-2.702 10.761-10.956v-11.89c0-8.304-2.458-10.957-10.761-10.957z" clip-path="url(#j)"/>
<path transform="matrix(1.3333 0 0 -1.3333 -11.339 513.13)" d="m424.23 210.52h8.205v-33.803h-8.205z" clip-path="url(#i)"/>
<path transform="matrix(1.3333 0 0 -1.3333 613.26 247.11)" d="m0 0c0 2.113-0.738 2.752-2.654 2.752h-18.079c-1.868 0-2.604-0.639-2.604-2.752v-11.89c0-2.063 0.688-2.702 2.604-2.702h18.079c1.966 0 2.654 0.639 2.654 2.702zm-20.733-22.797c-8.352 0-10.761 2.653-10.761 10.957v11.89c0 8.352 2.409 10.956 10.761 10.956h18.129c8.107 0 10.759-2.604 10.759-10.956v-11.89c0-8.304-2.652-10.957-10.759-10.957z" clip-path="url(#h)"/>
<path transform="matrix(1.3333 0 0 -1.3333 261.01 232.42)" d="m0 0-17.822-32.165-0.917-1.646h-7.23l-0.917 1.663-17.822 32.148h9.777l12.577-23.644 12.577 23.644z" clip-path="url(#g)"/>
<path transform="matrix(1.3333 0 0 -1.3333 617.85 228.13)" d="m0 0v3.276h-1.46v1.058h3.925v-1.058h-1.454v-3.276z" clip-path="url(#e)"/>
<path transform="matrix(1.3333 0 0 -1.3333 627.15 228.13)" d="m0 0v2.47l-1.096-2.47h-0.939l-1.097 2.47v-2.47h-0.926v4.334h1.102l1.399-3.263 1.406 3.263h1.072v-4.334z" clip-path="url(#d)"/>
</g>
</svg>
